<?xml version="1.0" standalone="no"?>
<!DOCTYPE svg PUBLIC "-//W3C//DTD SVG 20010904//EN"
 "http://www.w3.org/TR/2001/REC-SVG-20010904/DTD/svg10.dtd">
<svg version="1.0" xmlns="http://www.w3.org/2000/svg"
 width="607.000000pt" height="144.000000pt" viewBox="0 0 607.000000 144.000000"
 preserveAspectRatio="xMidYMid meet">

<g transform="translate(0.000000,144.000000) scale(0.100000,-0.100000)"
fill="#000000" stroke="none">
<path d="M564 1274 c-17 -59 -13 -122 10 -179 14 -32 63 -95 75 -95 4 0 7 66
7 146 l-1 146 -37 19 -37 19 -17 -56z"/>
<path d="M2185 1278 c-8 -25 -55 -217 -55 -227 0 -24 39 -9 59 22 11 17 36 48
56 67 35 34 40 35 121 39 l84 3 0 -335 c0 -371 5 -347 -67 -347 -30 0 -34 -3
-31 -22 3 -22 4 -22 183 -20 164 2 180 4 180 20 0 12 -10 18 -35 20 -19 2 -41
8 -47 14 -10 8 -13 88 -13 339 l0 329 69 0 c37 0 81 -5 97 -11 27 -9 96 -87
110 -123 7 -18 13 -19 32 -8 10 7 9 32 -6 125 -10 64 -21 120 -25 123 -3 3
-20 -5 -37 -18 -31 -23 -36 -23 -305 -26 -225 -2 -280 0 -309 12 -20 8 -36 20
-36 25 0 15 -20 14 -25 -1z"/>
<path d="M959 1243 c-67 -71 -92 -184 -61 -275 12 -35 15 -36 42 -27 48 17 51
26 48 184 l-3 146 -26 -28z"/>
<path d="M1103 1205 c0 -38 2 -53 4 -32 2 20 2 52 0 70 -2 17 -4 1 -4 -38z"/>
<path d="M3657 1243 c-13 -13 -22 -14 -61 -4 -25 6 -76 11 -114 11 -84 0 -157
-33 -206 -93 -26 -32 -31 -48 -34 -106 -8 -131 35 -182 224 -271 121 -57 144
-82 144 -155 0 -63 -22 -96 -81 -119 -47 -19 -97 -14 -145 15 -32 19 -78 98
-89 152 -4 18 -12 27 -24 27 -21 0 -25 -17 -36 -153 -6 -65 -4 -77 9 -77 8 0
19 7 24 16 8 15 15 14 66 -11 67 -33 176 -44 244 -26 55 15 119 73 145 131 26
58 27 160 2 213 -22 46 -75 89 -152 123 -32 14 -79 35 -105 46 -67 30 -90 58
-96 117 -4 47 -2 53 32 87 35 35 38 36 96 32 71 -5 103 -30 146 -113 22 -40
32 -51 46 -47 17 4 19 12 13 71 -14 147 -19 163 -48 134z"/>
<path d="M1723 1224 c-8 -22 6 -32 52 -36 l40 -3 8 -158 c5 -86 5 -239 0 -340
l-8 -182 -43 -3 c-38 -3 -43 -6 -40 -25 3 -21 6 -21 178 -19 159 2 175 4 175
20 0 12 -10 18 -35 20 -19 2 -41 10 -47 19 -10 13 -13 93 -13 322 0 168 3 316
6 328 5 17 15 23 43 25 29 2 37 8 39 26 l3 22 -176 0 c-150 0 -176 -2 -182
-16z"/>
<path d="M4499 1145 c-31 -17 -41 -47 -29 -80 28 -74 150 -49 150 30 0 57 -61
83 -121 50z"/>
<path d="M773 1060 c0 -36 2 -50 4 -32 2 17 2 47 0 65 -2 17 -4 3 -4 -33z"/>
<path d="M278 1000 c-44 -13 -48 -18 -37 -50 20 -56 119 -150 159 -150 6 0 10
38 10 105 l0 105 -52 -1 c-29 0 -65 -4 -80 -9z"/>
<path d="M1170 980 c-48 -25 -106 -87 -125 -133 l-15 -37 27 -11 c16 -6 56
-13 91 -16 l62 -6 0 112 c0 61 -1 111 -2 111 -2 -1 -19 -9 -38 -20z"/>
<path d="M1410 965 c0 -15 4 -24 10 -20 6 3 10 12 10 20 0 8 -4 17 -10 20 -6
4 -10 -5 -10 -20z"/>
<path d="M4165 934 c-5 -1 -27 -5 -47 -9 -21 -3 -51 -17 -67 -31 l-29 -24 -7
30 c-4 16 -11 30 -17 30 -6 0 -49 -14 -94 -32 -92 -34 -104 -52 -55 -79 38
-22 41 -46 41 -319 0 -275 -3 -298 -39 -302 -18 -2 -26 -9 -26 -22 0 -17 10
-18 140 -19 101 0 140 3 139 11 -1 7 -2 17 -2 22 -1 6 -15 10 -31 10 -17 0
-31 6 -35 16 -3 9 -6 64 -6 122 l0 107 73 0 c87 1 137 23 191 87 75 87 88 237
29 317 -18 24 -40 49 -51 57 -20 14 -90 32 -107 28z m-37 -85 c52 -18 77 -83
77 -201 0 -82 -3 -100 -21 -125 -30 -40 -93 -45 -129 -9 -25 25 -26 27 -23
173 3 146 3 148 28 160 31 16 30 15 68 2z"/>
<path d="M5020 922 c-19 -9 -44 -31 -55 -49 -25 -40 -35 -41 -35 -4 0 38 -9
61 -24 61 -14 0 -162 -63 -173 -73 -4 -4 10 -23 30 -41 l38 -34 -3 -139 -3
-138 -30 -5 c-20 -3 -31 -12 -33 -25 -3 -19 3 -20 148 -20 148 0 150 0 150 22
0 18 -7 22 -37 25 l-38 3 -3 135 c-4 181 9 208 83 180 59 -22 115 43 81 95
-19 30 -48 32 -96 7z"/>
<path d="M4505 901 c-86 -30 -107 -53 -62 -70 13 -5 27 -17 31 -26 3 -9 6 -81
6 -160 l0 -144 -32 -3 c-24 -2 -34 -8 -36 -23 -3 -19 3 -20 143 -20 140 0 146
1 143 20 -2 13 -13 22 -33 25 l-30 5 -3 213 -2 212 -23 -1 c-12 0 -58 -13
-102 -28z"/>
<path d="M5290 919 c-36 -14 -88 -68 -112 -114 -25 -48 -34 -145 -19 -200 15
-55 64 -119 107 -140 48 -23 130 -30 182 -16 28 8 61 29 93 60 52 50 63 81 29
81 -11 0 -20 -4 -20 -10 0 -15 -76 -50 -110 -50 -80 0 -133 54 -146 148 l-7
52 142 0 c159 0 160 0 141 68 -12 48 -50 96 -91 117 -32 17 -150 19 -189 4z
m124 -51 c21 -30 21 -84 0 -92 -9 -3 -38 -6 -65 -6 -48 0 -49 1 -49 29 0 38
44 91 75 91 13 0 31 -10 39 -22z"/>
<path d="M615 831 c-3 -5 -1 -12 5 -16 5 -3 10 1 10 9 0 18 -6 21 -15 7z"/>
<path d="M1135 675 c-5 -2 -27 -6 -48 -10 -21 -3 -41 -13 -44 -21 -8 -22 55
-108 101 -138 63 -41 66 -38 66 68 0 89 -1 94 -22 100 -25 6 -37 6 -53 1z"/>
<path d="M368 640 c-69 -36 -145 -137 -122 -160 14 -14 112 -31 140 -24 23 6
24 9 24 105 0 54 -1 99 -3 99 -1 0 -19 -9 -39 -20z"/>
<path d="M610 628 c0 -19 2 -20 10 -8 13 19 13 30 0 30 -5 0 -10 -10 -10 -22z"/>
<path d="M903 493 c-25 -58 -22 -158 6 -213 24 -47 59 -90 73 -90 4 0 8 70 8
155 l0 154 -30 16 c-39 20 -39 20 -57 -22z"/>
<path d="M1410 503 c0 -13 5 -23 10 -23 13 0 13 11 0 30 -8 12 -10 11 -10 -7z"/>
<path d="M610 433 c-59 -72 -75 -196 -34 -275 16 -32 19 -33 54 -13 25 13 25
13 25 169 0 86 -3 156 -7 156 -3 0 -21 -17 -38 -37z"/>
<path d="M773 400 c0 -36 2 -50 4 -32 2 17 2 47 0 65 -2 17 -4 3 -4 -33z"/>
<path d="M1103 265 c0 -38 2 -53 4 -32 2 20 2 52 0 70 -2 17 -4 1 -4 -38z"/>
</g>
</svg>
